<?xml version="1.0" encoding="UTF-8" standalone="no"?>
<!DOCTYPE svg PUBLIC "-//W3C//DTD SVG 1.1//EN" "http://www.w3.org/Graphics/SVG/1.1/DTD/svg11.dtd">
<svg version="1.1" xmlns="http://www.w3.org/2000/svg" xmlns:xlink="http://www.w3.org/1999/xlink" preserveAspectRatio="xMidYMid meet" viewBox="0 0 400 200" width="400" height="200"><defs><path d="M100.05 43.74C87.39 33.68 85.01 33.81 70.01 33.88C55.01 33.94 50.01 33.97 40.05 44.01C30.1 54.06 30.12 59.06 30.19 74.06C30.26 89.06 39.49 85.5 39.55 98C39.6 110.5 30.36 111.56 30.42 124.06C30.47 136.56 30.51 144.06 40.55 154.01C50.6 163.97 55.6 163.94 70.6 163.87C85.6 163.81 88.1 163.8 100.55 153.74C108.85 147.03 115.47 137 120.41 123.65L270.42 124.55C275.48 137.07 282.19 146.51 290.55 152.88C303.09 162.43 305.59 162.4 320.59 162.74C335.6 163.09 340.6 163.91 350.56 154.26C360.51 144.61 359.23 139.31 359.68 126.4C360.13 113.48 349.68 110.99 350.08 98.1C350.47 85.2 360.55 86.06 360.48 71.06C360.41 56.06 361.83 53.31 351.33 43.35C340.83 33.4 335.51 32.96 320.01 33.5C304.5 34.04 302.51 34.7 290.06 44.76C281.76 51.46 275.13 60.87 270.19 72.97L220.19 73.2L170.19 73.42L120.64 74.1C115.35 60.56 108.49 50.44 100.05 43.74Z" id="ciufy4VUR"></path></defs><g><g><g><g><filter id="shadow6887807" x="7.18" y="10.35" width="380.33" height="182.54" filterUnits="userSpaceOnUse" primitiveUnits="userSpaceOnUse"><feFlood></feFlood><feComposite in2="SourceAlpha" operator="in"></feComposite><feGaussianBlur stdDeviation="2"></feGaussianBlur><feOffset dx="-4" dy="6" result="afterOffset"></feOffset><feFlood flood-color="#515151" flood-opacity="0.81"></feFlood><feComposite in2="afterOffset" operator="in"></feComposite><feMorphology operator="dilate" radius="4"></feMorphology><feComposite in2="SourceAlpha" operator="out"></feComposite></filter><path d="M100.05 43.74C87.39 33.68 85.01 33.81 70.01 33.88C55.01 33.94 50.01 33.97 40.05 44.01C30.1 54.06 30.12 59.06 30.19 74.06C30.26 89.06 39.49 85.5 39.55 98C39.6 110.5 30.36 111.56 30.42 124.06C30.47 136.56 30.51 144.06 40.55 154.01C50.6 163.97 55.6 163.94 70.6 163.87C85.6 163.81 88.1 163.8 100.55 153.74C108.85 147.03 115.47 137 120.41 123.65L270.42 124.55C275.48 137.07 282.19 146.51 290.55 152.88C303.09 162.43 305.59 162.4 320.59 162.74C335.6 163.09 340.6 163.91 350.56 154.26C360.51 144.61 359.23 139.31 359.68 126.4C360.13 113.48 349.68 110.99 350.08 98.1C350.47 85.2 360.55 86.06 360.48 71.06C360.41 56.06 361.83 53.31 351.33 43.35C340.83 33.4 335.51 32.96 320.01 33.5C304.5 34.04 302.51 34.7 290.06 44.76C281.76 51.46 275.13 60.87 270.19 72.97L220.19 73.2L170.19 73.42L120.64 74.1C115.35 60.56 108.49 50.44 100.05 43.74Z" id="d6JEjVhlI" fill="white" fill-opacity="1" filter="url(#shadow6887807)"></path></g><use xlink:href="#ciufy4VUR" opacity="1" fill="#b98e52" fill-opacity="1"></use><g><use xlink:href="#ciufy4VUR" opacity="1" fill-opacity="0" stroke="#380807" stroke-width="10" stroke-opacity="1"></use></g></g></g></g></svg>